<?xml version="1.0" encoding="UTF-8"?>
<svg version="1.1" xmlns="http://www.w3.org/2000/svg" width="812" height="530">
<path d="M0 0 C267.96 0 535.92 0 812 0 C812 174.9 812 349.8 812 530 C544.04 530 276.08 530 0 530 C0 355.1 0 180.2 0 0 Z " fill="#1D1D1D" transform="translate(0,0)"/>
<path d="M0 0 C1.71009756 0.91051276 3.40372345 1.85245401 5.08203125 2.8203125 C6.01337891 3.35527344 6.94472656 3.89023438 7.90429688 4.44140625 C8.86400391 4.99699219 9.82371094 5.55257812 10.8125 6.125 C11.79154297 6.68832031 12.77058594 7.25164062 13.77929688 7.83203125 C16.18789555 9.21844415 18.59471395 10.60785055 21 12 C21.26200753 16.54056803 21.42142326 21.07919403 21.5625 25.625 C21.63791016 26.91019531 21.71332031 28.19539063 21.79101562 29.51953125 C22.00790229 38.82155937 22.00790229 38.82155937 19.21801758 42.08349609 C16.88126147 43.65762157 14.56574615 44.84190213 12 46 C10.70106545 46.76426378 9.40986304 47.54190992 8.12890625 48.3359375 C6.94201128 49.01894981 5.75323959 49.69871254 4.5625 50.375 C3.95212891 50.72949219 3.34175781 51.08398438 2.71289062 51.44921875 C-1.75343871 54 -1.75343871 54 -4 54 C-3.90984619 53.21987549 -3.81969238 52.43975098 -3.72680664 51.63598633 C-2.90817254 43.09429372 -2.10202723 34.20893684 -5 26 C-10.93797606 19.29587406 -19.72024996 15.95960307 -28 13 C-23.98307085 8.76441996 -19.56212011 6.06639895 -14.5625 3.125 C-13.71623047 2.60164062 -12.86996094 2.07828125 -11.99804688 1.5390625 C-11.17498047 1.054375 -10.35191406 0.5696875 -9.50390625 0.0703125 C-8.75955322 -0.37554199 -8.0152002 -0.82139648 -7.24829102 -1.28076172 C-4.13677196 -2.27615049 -2.86379293 -1.47435162 0 0 Z " fill="#E7DB8E" transform="translate(192,222)"/>
<path d="M0 0 C3.38951891 1.57716975 6.58210032 3.49602032 9.8125 5.375 C10.69615234 5.87 11.57980469 6.365 12.49023438 6.875 C13.32490234 7.35710937 14.15957031 7.83921875 15.01953125 8.3359375 C15.78370361 8.77470215 16.54787598 9.2134668 17.33520508 9.66552734 C17.8845874 10.10590332 18.43396973 10.5462793 19 11 C19 11.99 19 12.98 19 14 C17.19580078 15.44213867 17.19580078 15.44213867 14.6953125 16.91796875 C13.80199219 17.44970703 12.90867188 17.98144531 11.98828125 18.52929688 C11.04339844 19.07650391 10.09851563 19.62371094 9.125 20.1875 C8.18785156 20.74630859 7.25070313 21.30511719 6.28515625 21.88085938 C-0.70581502 26 -0.70581502 26 -3 26 C-3 35.57 -3 45.14 -3 55 C-4.65 54.34 -6.3 53.68 -8 53 C-8.79317627 52.70818848 -9.58635254 52.41637695 -10.40356445 52.11572266 C-17.01624175 49.5572893 -23.53447301 46.68174776 -28 41 C-29.60629333 36.18112001 -29.84195278 31.68116906 -29.8125 26.625 C-29.81020386 24.7699585 -29.81020386 24.7699585 -29.80786133 22.87744141 C-29.27283425 14.37600569 -29.27283425 14.37600569 -26.12353516 10.97143555 C-23.81781229 9.41086986 -21.51283988 8.19354132 -19 7 C-17.73592584 6.22389392 -16.4798447 5.43452983 -15.234375 4.62890625 C-14.07476121 3.93700335 -12.91333372 3.24812994 -11.75 2.5625 C-11.16476563 2.19962891 -10.57953125 1.83675781 -9.9765625 1.46289062 C-6.11998852 -0.7983069 -4.24682297 -1.21423643 0 0 Z " fill="#EBDE90" transform="translate(164,238)"/>
<path d="M0 0 C3.42290529 1.36916212 6.15602328 2.57411619 9.25 4.41796875 C10.0234375 4.86720703 10.796875 5.31644531 11.59375 5.77929688 C13.20304885 6.72110245 14.80722949 7.67170665 16.40625 8.63085938 C17.1796875 9.07623047 17.953125 9.52160156 18.75 9.98046875 C19.44609375 10.39192139 20.1421875 10.80337402 20.859375 11.22729492 C23.6708103 12.24214355 25.16411735 11.8807362 28 11 C30.31738221 9.89791408 30.31738221 9.89791408 32.57421875 8.49609375 C33.40630859 8.00302734 34.23839844 7.50996094 35.09570312 7.00195312 C35.95099609 6.48568359 36.80628906 5.96941406 37.6875 5.4375 C39.39744608 4.41153235 41.10958122 3.38920148 42.82421875 2.37109375 C43.57791748 1.91661865 44.33161621 1.46214355 45.1081543 0.99389648 C47 0 47 0 49 0 C50.49450062 9.21417115 51.86324343 18.95682649 49 28 C45.80087936 32.10772541 42.18692296 34.56783692 37.6875 37.125 C36.11162109 38.03789795 36.11162109 38.03789795 34.50390625 38.96923828 C30.0715812 41.11393365 26.86582814 42.56028394 22.02270508 41.10595703 C19.18454038 39.57653012 16.6189696 37.87682117 14 36 C12.63158823 35.20305521 11.25366891 34.42201628 9.86328125 33.6640625 C8.67891603 32.98572019 7.49543164 32.30583918 6.3125 31.625 C4.229375 30.42875 2.14625 29.2325 0 28 C0 18.76 0 9.52 0 0 Z " fill="#DCCB80" transform="translate(164,267)"/>
<path d="M0 0 C8 0 8 0 9.96362305 1.40795898 C11.55443015 5.38666312 11.52145057 9.2216753 11.58203125 13.47265625 C11.6047258 14.39211533 11.62742035 15.3115744 11.65080261 16.25889587 C11.69533591 18.19954902 11.73271136 20.14037782 11.76342773 22.08129883 C11.81238607 25.05557862 11.88787733 28.02833356 11.96679688 31.00195312 C12.00678854 32.88798799 12.04525204 34.77405601 12.08203125 36.66015625 C12.10481644 37.55082291 12.12760162 38.44148956 12.15107727 39.35914612 C12.16156601 40.18688034 12.17205475 41.01461456 12.18286133 41.86743164 C12.19601883 42.59483047 12.20917633 43.32222931 12.22273254 44.07167053 C12 46 12 46 10 49 C6.39408679 49.47446226 4.10217621 48.83832664 1 47 C0.01 47.66 -0.98 48.32 -2 49 C-5.41288317 49.60159297 -8.58885188 49.6211995 -12 49 C-16.50401691 45.0589852 -18.61032009 40.79937909 -19.21875 34.8671875 C-19.49312685 28.1220899 -18.01642629 23.26233193 -13.4375 18.125 C-9.51860683 14.70852903 -7.1581292 14.8157811 -2 15 C-1.34 15.33 -0.68 15.66 0 16 C0 10.72 0 5.44 0 0 Z " fill="#B99E5D" transform="translate(353,240)"/>
<path d="M0 0 C7 0 7 0 8.91146851 1.25793457 C10.87668785 4.40303482 10.46241138 8.11586602 10.4765625 11.71875 C10.49214203 12.57303589 10.50772156 13.42732178 10.52377319 14.30749512 C10.57131976 17.03832065 10.59905807 19.76889097 10.625 22.5 C10.66150845 25.23092793 10.70216187 27.96171188 10.74765015 30.69250488 C10.77483522 32.39188231 10.79620454 34.09136474 10.81118774 35.79089355 C10.85528653 39.1036253 10.94533111 41.83599334 12 45 C10.5625 47.1875 10.5625 47.1875 9 49 C7.63875 48.7525 7.63875 48.7525 6.25 48.5 C1.50515596 47.70780615 1.50515596 47.70780615 -3 49 C-11.31794793 50.16304051 -11.31794793 50.16304051 -14.734375 47.80078125 C-19.73105855 41.9664184 -19.34216776 35.69996493 -19.28125 28.359375 C-18.92970343 24.1603465 -17.93840508 22.01782144 -15 19 C-14.2575 18.21625 -13.515 17.4325 -12.75 16.625 C-8.88671675 14.34215081 -6.44937518 14.63529712 -2 15 C-1.34 15.33 -0.68 15.66 0 16 C0 10.72 0 5.44 0 0 Z " fill="#A27A3E" transform="translate(628,240)"/>
<path d="M0 0 C7 0 7 0 8.91146851 1.25793457 C10.87668785 4.40303482 10.46241138 8.11586602 10.4765625 11.71875 C10.49214203 12.57303589 10.50772156 13.42732178 10.52377319 14.30749512 C10.57131976 17.03832065 10.59905807 19.76889097 10.625 22.5 C10.66150845 25.23092793 10.70216187 27.96171188 10.74765015 30.69250488 C10.77483522 32.39188231 10.79620454 34.09136474 10.81118774 35.79089355 C10.85528653 39.1036253 10.94533111 41.83599334 12 45 C10.5625 47.1875 10.5625 47.1875 9 49 C6.23723823 48.47731534 3.6739124 47.89130413 1 47 C-0.34106441 47.65097502 -1.67356383 48.3197138 -3 49 C-6.39703176 49.51717631 -9.60549276 49.55443618 -13 49 C-16.79280343 45.681297 -18.72543392 41.38551565 -19.30078125 36.38671875 C-19.32766456 30.19459686 -18.82657135 25.55567473 -16 20 C-12.52656487 16.69600073 -10.31197092 15.0468561 -5.5 14.875 C-2 15 -2 15 0 16 C0 10.72 0 5.44 0 0 Z " fill="#AE8B4C" transform="translate(318,240)"/>
<path d="M0 0 C8 0 8 0 9.98828125 1.546875 C11.36730836 4.89061641 11.28762522 7.64549215 11.1875 11.25 C11.16042969 12.51328125 11.13335938 13.7765625 11.10546875 15.078125 C11.07066406 16.04234375 11.03585937 17.0065625 11 18 C11.91523437 17.505 12.83046875 17.01 13.7734375 16.5 C17.79996781 14.62810213 19.76930889 14.74646189 24 16 C29.75112417 21.75112417 29.33866705 27.89282611 29.6875 35.5625 C29.74744141 36.62919922 29.80738281 37.69589844 29.86914062 38.79492188 C29.91619141 39.81263672 29.96324219 40.83035156 30.01171875 41.87890625 C30.05772217 42.8129126 30.10372559 43.74691895 30.15112305 44.70922852 C30 47 30 47 28 49 C21.79221516 49.56434408 21.79221516 49.56434408 19.2956543 47.78588867 C17.58870716 45.43308704 17.65451808 44.00150565 17.70703125 41.11328125 C17.71669922 40.17548828 17.72636719 39.23769531 17.73632812 38.27148438 C17.76146484 37.29501953 17.78660156 36.31855469 17.8125 35.3125 C17.83280273 33.83040039 17.83280273 33.83040039 17.85351562 32.31835938 C17.88887797 29.87835769 17.93822967 27.43945281 18 25 C16.02 25.33 14.04 25.66 12 26 C11.67 33.59 11.34 41.18 11 49 C7.37 49 3.74 49 0 49 C0 32.83 0 16.66 0 0 Z " fill="#C4AE6C" transform="translate(519,240)"/>
<path d="M0 0 C-0.54723683 3.37462715 -1.0549 5.08235 -3 8 C-3.556875 7.855625 -4.11375 7.71125 -4.6875 7.5625 C-9.94136317 6.28453328 -14.59708529 5.80353037 -20 6 C-20.06625239 8.38330836 -20.06625239 8.38330836 -19 11 C-16.56779396 12.53940845 -14.34497425 13.75241289 -11.75 14.9375 C-6.14421811 17.52436852 -2.52753822 19.82986765 1 25 C2.03625335 28.77005332 1.35903606 32.16854808 -0.1875 35.75 C-3.01126702 39.25536595 -5.71290116 41.57096705 -10 43 C-26.60553721 44.11557023 -26.60553721 44.11557023 -33 39 C-32.45276317 35.62537285 -31.9451 33.91765 -30 31 C-25.39726027 31.76712329 -25.39726027 31.76712329 -23.1875 33.0625 C-19.75270576 34.53455468 -16.72080454 34.18003893 -13 34 C-12.01 33.505 -12.01 33.505 -11 33 C-10.92895861 30.61902386 -10.92895861 30.61902386 -12 28 C-14.45336083 26.43742519 -16.69413077 25.20508668 -19.3125 24 C-24.2702491 21.67915075 -28.05454457 19.85482101 -31 15 C-31.77430169 11.58239252 -31.67247311 8.43582898 -31 5 C-28.625 2 -28.625 2 -26 0 C-25.34 -0.66 -24.68 -1.32 -24 -2 C-16.07600267 -4.73483094 -7.41235698 -3.42108784 0 0 Z " fill="#DCCC82" transform="translate(513,246)"/>
<path d="M0 0 C-0.33 2.31 -0.66 4.62 -1 7 C-4.87205749 8.48925288 -7.18298552 7.27233816 -11 6 C-13.33212027 5.92477031 -15.6685311 5.90674124 -18 6 C-18.33 7.65 -18.66 9.3 -19 11 C-17.845 11.5775 -16.69 12.155 -15.5 12.75 C-14.40751953 13.30494141 -14.40751953 13.30494141 -13.29296875 13.87109375 C-11.83464354 14.58907669 -10.35875113 15.27314623 -8.86328125 15.91015625 C-3.80959153 18.13377973 -0.08476254 20.71030401 2 26 C2.5371329 30.74329673 1.66234624 34.63475491 -1.25 38.4375 C-6.80284265 43.61173974 -12.22676876 43.36899787 -19.53125 43.25390625 C-24.04385491 42.9235917 -27.0352775 42.17671039 -31 40 C-31.7890625 38.0625 -31.7890625 38.0625 -32 36 C-30.5625 33.25 -30.5625 33.25 -29 31 C-28.443125 31.2165625 -27.88625 31.433125 -27.3125 31.65625 C-21.95771633 33.61002242 -17.69787957 34.4069914 -12 34 C-10.70366379 32.93354885 -10.70366379 32.93354885 -10.9375 30.4375 C-10.958125 29.633125 -10.97875 28.82875 -11 28 C-12.55460937 27.20335937 -12.55460937 27.20335937 -14.140625 26.390625 C-15.51062127 25.67747626 -16.88040164 24.96391264 -18.25 24.25 C-18.93191406 23.90195312 -19.61382812 23.55390625 -20.31640625 23.1953125 C-24.06355425 21.2307883 -27.42277679 19.45582204 -30 16 C-30.99778174 11.07712096 -30.76063771 6.46042439 -28.4375 2 C-19.6549528 -5.20619257 -10.00476331 -4.05990395 0 0 Z " fill="#95672E" transform="translate(274,246)"/>
<path d="M0 0 C7 0 7 0 8.92578125 1.01953125 C10.60831685 4.12151506 10.31236304 7.25856896 10.1875 10.6875 C10.17396484 11.38939453 10.16042969 12.09128906 10.14648438 12.81445312 C10.11120182 14.54329829 10.05739583 16.27174765 10 18 C10.90492188 17.50628906 11.80984375 17.01257813 12.7421875 16.50390625 C15.69649916 15.1401053 16.99804182 14.57669713 20.125 14.9375 C20.76695312 14.98777344 21.40890625 15.03804687 22.0703125 15.08984375 C25.30682776 16.61637828 26.77840101 18.74920999 28 22 C28.62174016 26.45506165 28.69644745 30.88145427 28.75 35.375 C28.77964844 36.58800781 28.80929687 37.80101562 28.83984375 39.05078125 C28.9103116 42.03392021 28.9631248 45.01628795 29 48 C25.98675805 49.50662097 23.31713623 49.17770373 20 49 C17.51942372 46.51942372 17.70980995 45.63807536 17.5859375 42.2109375 C17.54726563 41.26992188 17.50859375 40.32890625 17.46875 39.359375 C17.42234375 37.88210938 17.42234375 37.88210938 17.375 36.375 C17.33632813 35.38242187 17.29765625 34.38984375 17.2578125 33.3671875 C17.1633686 30.91164615 17.07780125 28.4561159 17 26 C14.69 26 12.38 26 10 26 C10 33.59 10 41.18 10 49 C6.7 49 3.4 49 0 49 C0 32.83 0 16.66 0 0 Z " fill="#EADF91" transform="translate(433,240)"/>
<path d="M0 0 C3.98292415 2.02767048 6.7237155 4.15794754 9 8 C9.3956287 12.36774081 9.13187137 16.60428782 9 21 C3.39 21 -2.22 21 -8 21 C-7.34 22.32 -6.68 23.64 -6 25 C-5.15695312 24.97679687 -4.31390625 24.95359375 -3.4453125 24.9296875 C-1.80175781 24.90261719 -1.80175781 24.90261719 -0.125 24.875 C1.51082031 24.84019531 1.51082031 24.84019531 3.1796875 24.8046875 C6 25 6 25 8 27 C7.8125 29.5 7.8125 29.5 7 32 C3.35603999 34.42930667 1.46087919 34.29874985 -2.875 34.3125 C-4.08929687 34.32925781 -5.30359375 34.34601563 -6.5546875 34.36328125 C-11.72967986 33.81761879 -13.96597766 32.23232799 -17.28125 28.28125 C-19.30892038 24.41024291 -19.53537181 21.85073241 -19.5 17.5 C-19.51546875 15.59734375 -19.51546875 15.59734375 -19.53125 13.65625 C-18.77453259 8.44825373 -16.31279191 5.46723802 -12.875 1.625 C-8.61604292 -0.78223661 -4.78102419 -0.76618977 0 0 Z " fill="#92642D" transform="translate(663,255)"/>
<path d="M0 0 C4.20140665 1.55607654 6.70248122 3.13049468 9 7 C9.94238698 9.82716095 10.13465647 11.63176123 10.125 14.5625 C10.12886719 15.74005859 10.12886719 15.74005859 10.1328125 16.94140625 C10 19 10 19 9 21 C3.39 21 -2.22 21 -8 21 C-7.34 22.32 -6.68 23.64 -6 25 C-1.71 25 2.58 25 7 25 C7.66 26.98 8.32 28.96 9 31 C2.94267795 35.34825037 -3.89561626 35.11517769 -11 34 C-14.95271194 31.45751805 -16.54338039 28.36985884 -18 24 C-18.50229724 16.85192386 -18.9430548 10.17745251 -15 4 C-10.35013907 -0.31772801 -6.07302166 -0.90333476 0 0 Z " fill="#CAB46F" transform="translate(388,255)"/>
<path d="M0 0 C6.75 0 6.75 0 10 3 C10.680625 2.505 11.36125 2.01 12.0625 1.5 C15.74788284 -0.38189762 17.90846373 -0.58450518 22 0 C24.63016161 2.1727422 26.47336894 3.94673788 28 7 C28.3956172 11.15581406 28.51469621 15.32966858 28.6875 19.5 C28.74744141 20.66660156 28.80738281 21.83320313 28.86914062 23.03515625 C28.91619141 24.14761719 28.96324219 25.26007813 29.01171875 26.40625 C29.05772217 27.43041016 29.10372559 28.45457031 29.15112305 29.50976562 C29 32 29 32 27 34 C23.5 34.25 23.5 34.25 20 34 C17.51942372 31.51942372 17.70980995 30.63807536 17.5859375 27.2109375 C17.54726563 26.26992188 17.50859375 25.32890625 17.46875 24.359375 C17.4378125 23.37453125 17.406875 22.3896875 17.375 21.375 C17.33632813 20.38242187 17.29765625 19.38984375 17.2578125 18.3671875 C17.1633686 15.91164615 17.07780125 13.4561159 17 11 C14.69 11 12.38 11 10 11 C10 18.59 10 26.18 10 34 C6.7 34 3.4 34 0 34 C0 22.78 0 11.56 0 0 Z " fill="#B39252" transform="translate(575,255)"/>
<path d="M0 0 C4.48993966 0.02675769 8.15158027 0.33820234 12.3125 2.1875 C11.9825 4.1675 11.6525 6.1475 11.3125 8.1875 C6.70176889 9.48426812 2.97409911 8.89859139 -1.6875 8.1875 C-1.03747767 11.28454043 -1.03747767 11.28454043 1.23828125 12.21484375 C2.02589844 12.51519531 2.81351562 12.81554687 3.625 13.125 C10.39943854 16.02678976 10.39943854 16.02678976 12.3125 19.1875 C12.9808089 22.67098622 13.00975874 25.70682935 12.3125 29.1875 C9.70221522 33.02615409 9.70221522 33.02615409 6.3125 34.1875 C-0.33011654 34.91003022 -6.55473961 35.07418684 -12.6875 32.1875 C-12.3575 29.8775 -12.0275 27.5675 -11.6875 25.1875 C-7.3975 25.5175 -3.1075 25.8475 1.3125 26.1875 C0.63385421 23.04683888 0.63385421 23.04683888 -1.90234375 21.90625 C-2.80082031 21.5040625 -3.69929688 21.101875 -4.625 20.6875 C-9.47120979 18.51193532 -9.47120979 18.51193532 -11.6875 15.1875 C-12.23272803 12.12274457 -12.23592924 9.25225161 -11.6875 6.1875 C-9.25 3.1875 -9.25 3.1875 -6.6875 1.1875 C-4.91381653 -0.58618347 -2.39854575 0.0147512 0 0 Z " fill="#DBCA81" transform="translate(414.6875,254.8125)"/>
<path d="M0 0 C15 8 15 8 16 9 C16.450758 13.55179717 16.51169678 18.11684802 16.625 22.6875 C16.69589844 23.96818359 16.76679688 25.24886719 16.83984375 26.56835938 C17.02206109 35.78951582 17.02206109 35.78951582 14.23339844 39.09228516 C11.87358106 40.70420167 9.61663832 41.84904445 7 43 C3.04 44.98 3.04 44.98 -1 47 C-0.67 31.49 -0.34 15.98 0 0 Z " fill="#C1A460" transform="translate(197,225)"/>
<path d="M0 0 C2.70539457 24.18451365 2.70539457 24.18451365 -1.63623047 30.30761719 C-6.18639195 34.20042623 -12.84697571 38 -19 38 C-19 37.01 -19 36.02 -19 35 C-18.34 35 -17.68 35 -17 35 C-17.2475 33.515 -17.2475 33.515 -17.5 32 C-18.39377749 25.05119475 -18.07635992 17.99117499 -18 11 C-18.66 10.67 -19.32 10.34 -20 10 C-17.04550087 8.3264663 -14.0857982 6.66236015 -11.125 5 C-10.28324219 4.52304687 -9.44148437 4.04609375 -8.57421875 3.5546875 C-7.76855469 3.10351562 -6.96289062 2.65234375 -6.1328125 2.1875 C-5.38918457 1.76855469 -4.64555664 1.34960938 -3.87939453 0.91796875 C-2 0 -2 0 0 0 Z " fill="#CCB46D" transform="translate(213,267)"/>
<path d="M0 0 C0.02505615 1.19077148 0.0501123 2.38154297 0.07592773 3.60839844 C0.17014647 8.02907958 0.27033189 12.4496089 0.37231445 16.87011719 C0.41560857 18.78284146 0.45728756 20.695603 0.49731445 22.60839844 C0.5551508 25.35883818 0.61880676 28.10909128 0.68359375 30.859375 C0.70030624 31.71368103 0.71701874 32.56798706 0.73423767 33.44818115 C0.75418289 34.24870911 0.77412811 35.04923706 0.79467773 35.87402344 C0.81022202 36.57573669 0.8257663 37.27744995 0.84178162 38.00042725 C1.00726836 40.09185797 1.43584497 41.98256308 2 44 C0.33078429 43.33974162 -1.3353034 42.67157089 -3 42 C-3.86923096 41.66484375 -4.73846191 41.3296875 -5.6340332 40.984375 C-8.57942447 39.58830317 -10.69084347 38.31602431 -13 36 C-14.47936114 31.30737832 -14.35512149 26.88353959 -14.1875 22 C-14.21779297 20.741875 -14.24808594 19.48375 -14.27929688 18.1875 C-14.16100323 9.25396357 -14.16100323 9.25396357 -11.01806641 5.859375 C-8.73500461 4.33146197 -6.49437418 3.14116316 -4 2 C-1 0 -1 0 0 0 Z " fill="#BC9D5A" transform="translate(149,243)"/>
<path d="M0 0 C1.74861792 -0.10853491 3.49919241 -0.18583428 5.25 -0.25 C6.22453125 -0.29640625 7.1990625 -0.3428125 8.203125 -0.390625 C11.84611369 0.1181723 12.76902294 1.10938875 15 4 C15.45410156 7.11621094 15.45410156 7.11621094 15.390625 10.734375 C15.37773438 12.02988281 15.36484375 13.32539063 15.3515625 14.66015625 C15.31814366 16.02344824 15.28428391 17.38672949 15.25 18.75 C15.22992707 20.12888064 15.21167767 21.50778912 15.1953125 22.88671875 C15.14815448 26.25851744 15.08234538 29.62890687 15 33 C11.7 33 8.4 33 5 33 C4.67 25.08 4.34 17.16 4 9 C2.68 8.34 1.36 7.68 0 7 C0 4.69 0 2.38 0 0 Z " fill="#C0A461" transform="translate(552,256)"/>
<path d="M0 0 C1.76949095 -0.10815225 3.54087487 -0.18566083 5.3125 -0.25 C6.29863281 -0.29640625 7.28476562 -0.3428125 8.30078125 -0.390625 C11 0 11 0 12.65039062 1.60351562 C14.44726054 4.7941949 14.34100073 7.08394433 14.29296875 10.734375 C14.28330078 12.02988281 14.27363281 13.32539063 14.26367188 14.66015625 C14.23860783 16.02344354 14.21321302 17.38672479 14.1875 18.75 C14.17244518 20.12889184 14.15875817 21.50779935 14.14648438 22.88671875 C14.11111909 26.25820915 14.06175904 29.62890654 14 33 C10.7 33 7.4 33 4 33 C3.98541748 32.28344238 3.97083496 31.56688477 3.95581055 30.82861328 C3.88151 27.59352017 3.78479139 24.35947981 3.6875 21.125 C3.66494141 19.99707031 3.64238281 18.86914062 3.61914062 17.70703125 C3.58369141 16.63066406 3.54824219 15.55429687 3.51171875 14.4453125 C3.48553467 13.45031738 3.45935059 12.45532227 3.43237305 11.43017578 C3.28968994 10.62821777 3.14700684 9.82625977 3 9 C2.01 8.34 1.02 7.68 0 7 C-0.1875 3.375 -0.1875 3.375 0 0 Z " fill="#A37A3E" transform="translate(279,256)"/>
<path d="M0 0 C0.01030746 0.59246521 0.02061493 1.18493042 0.03123474 1.79534912 C0.13938458 7.95970506 0.25397579 14.12391735 0.37231445 20.28808594 C0.41563606 22.58883662 0.45731313 24.88961888 0.49731445 27.19042969 C0.55508395 30.49684161 0.61875949 33.803095 0.68359375 37.109375 C0.70030624 38.13867126 0.71701874 39.16796753 0.73423767 40.22845459 C0.75418289 41.18914856 0.77412811 42.14984253 0.79467773 43.13964844 C0.81022202 43.98348083 0.8257663 44.82731323 0.84178162 45.69671631 C0.99407571 47.91375644 1.38782088 49.86850379 2 52 C-4.80853764 49.31241935 -4.80853764 49.31241935 -6.1048584 47.19714355 C-7.03745928 44.90805542 -7.27481828 43.3035877 -7.32226562 40.84570312 C-7.34148071 40.03806519 -7.3606958 39.23042725 -7.38049316 38.39831543 C-7.38899292 37.53468384 -7.39749268 36.67105225 -7.40625 35.78125 C-7.41765015 34.88635864 -7.42905029 33.99146729 -7.4407959 33.06945801 C-7.4596602 31.17997953 -7.47274971 29.29043578 -7.48046875 27.40087891 C-7.49993548 24.50958299 -7.56202113 21.62110064 -7.625 18.73046875 C-7.63805608 16.89324603 -7.6485586 15.05600301 -7.65625 13.21875 C-7.6809436 12.35511841 -7.70563721 11.49148682 -7.7310791 10.60168457 C-7.71359067 8.24849325 -7.64355747 6.2643902 -7 4 C-2.37528431 0 -2.37528431 0 0 0 Z " fill="#CDB56E" transform="translate(156,239)"/>
<path d="M0 0 C1.12513633 8.01659634 1.09579384 15.92138585 1 24 C0.34 24 -0.32 24 -1 24 C-1 25.32 -1 26.64 -1 28 C-2.98 28.99 -4.96 29.98 -7 31 C-7.99 30.34 -8.98 29.68 -10 29 C-10.35644531 26.6015625 -10.35644531 26.6015625 -10.328125 23.625 C-10.32296875 22.55765625 -10.3178125 21.4903125 -10.3125 20.390625 C-10.291875 19.27171875 -10.27125 18.1528125 -10.25 17 C-10.24484375 15.88109375 -10.2396875 14.7621875 -10.234375 13.609375 C-10.1541718 5.3083436 -10.1541718 5.3083436 -9 3 C-3.69230769 0 -3.69230769 0 0 0 Z " fill="#EDE192" transform="translate(195,278)"/>
<path d="M0 0 C3.80241571 1.52096628 7.36474615 3.14010268 11 5 C10.34 5.66 9.68 6.32 9 7 C8.62826984 9.6182767 8.62826984 9.6182767 8.5859375 12.6640625 C8.52792969 14.34628906 8.52792969 14.34628906 8.46875 16.0625 C8.42234375 17.8259375 8.42234375 17.8259375 8.375 19.625 C8.31699219 21.40003906 8.31699219 21.40003906 8.2578125 23.2109375 C8.16331155 26.14046691 8.07775442 29.06998597 8 32 C5.36 30.68 2.72 29.36 0 28 C0 18.76 0 9.52 0 0 Z " fill="#AD8748" transform="translate(164,267)"/>
<path d="M0 0 C6 2 6 2 7 3 C7.36610315 7.59577204 7.37169839 12.204118 7.4375 16.8125 C7.48326172 18.10994141 7.52902344 19.40738281 7.57617188 20.74414062 C7.68727776 30.08186547 7.68727776 30.08186547 5.66845703 32.77880859 C3.91475461 33.9683903 2.19871087 35 0 35 C0 23.45 0 11.9 0 0 Z " fill="#A3793C" transform="translate(206,231)"/>
<path d="M0 0 C0.12368591 3.93245085 0.21437336 7.86414798 0.2746582 11.7980957 C0.31214374 13.79353555 0.37567535 15.78843052 0.43945312 17.78320312 C0.45556641 19.03681641 0.47167969 20.29042969 0.48828125 21.58203125 C0.51446533 22.73936768 0.54064941 23.8967041 0.56762695 25.08911133 C0 28 0 28 -2.40551758 29.90112305 C-5 31 -5 31 -7 31 C-7.33 21.76 -7.66 12.52 -8 3 C-2 0 -2 0 0 0 Z " fill="#A0763A" transform="translate(213,267)"/>
<path d="M0 0 C0 11.22 0 22.44 0 34 C-1.98 33.01 -3.96 32.02 -6 31 C-6.09895097 27.06745992 -6.1715042 23.13540254 -6.21972656 19.2019043 C-6.24971281 17.20660986 -6.30053786 15.21166418 -6.3515625 13.21679688 C-6.37089844 11.33637695 -6.37089844 11.33637695 -6.390625 9.41796875 C-6.41157227 8.26063232 -6.43251953 7.1032959 -6.45410156 5.91088867 C-6 3 -6 3 -4.10058594 1.09887695 C-2 0 -2 0 0 0 Z " fill="#9A6E34" transform="translate(142,248)"/>
<path d="M0 0 C2.42169243 1.24096677 4.83705119 2.49223371 7.25 3.75 C7.93191406 4.09804687 8.61382812 4.44609375 9.31640625 4.8046875 C13.12615687 6.80203249 16.12676359 8.71206968 19 12 C16.91794343 13.29376347 14.83442696 14.58506554 12.75 15.875 C12.16347656 16.23980469 11.57695312 16.60460937 10.97265625 16.98046875 C8.03638614 18.79501769 5.10000871 20.48535696 2 22 C1.97494385 21.44014404 1.9498877 20.88028809 1.92407227 20.3034668 C1.80796255 17.76458695 1.6853042 15.22606447 1.5625 12.6875 C1.52318359 11.80642578 1.48386719 10.92535156 1.44335938 10.01757812 C1.40146484 9.17001953 1.35957031 8.32246094 1.31640625 7.44921875 C1.26141968 6.27879028 1.26141968 6.27879028 1.20532227 5.0847168 C1.05874737 2.80670899 1.05874737 2.80670899 0 0 Z " fill="#D2BC74" transform="translate(165,239)"/>
<path d="M0 0 C3.16115776 1.36983503 3.9927092 1.9890638 6 5 C6.44949696 8.15176689 6.37027413 11.31949182 6.375 14.5 C6.39949219 15.36753906 6.42398438 16.23507813 6.44921875 17.12890625 C6.4786309 23.47212723 6.4786309 23.47212723 4.1015625 26.09375 C2 27 2 27 0 27 C0 36.57 0 46.14 0 56 C-0.66 55.67 -1.32 55.34 -2 55 C-1.87989766 49.73866807 -1.75557719 44.47745695 -1.62768555 39.21630859 C-1.58491658 37.43410814 -1.54321385 35.65188172 -1.50268555 33.86962891 C-1.24456118 22.55677096 -0.80813491 11.28810779 0 0 Z " fill="#D2C984" transform="translate(161,237)"/>
<path d="M0 0 C0 6.6 0 13.2 0 20 C-12.1875 14.10714286 -12.1875 14.10714286 -17 10 C-16.09636719 9.44570312 -15.19273437 8.89140625 -14.26171875 8.3203125 C-13.07029421 7.58857144 -11.87888897 6.85679896 -10.6875 6.125 C-10.09259766 5.76019531 -9.49769531 5.39539063 -8.88476562 5.01953125 C-0.71661932 0 -0.71661932 0 0 0 Z " fill="#CCB46E" transform="translate(181,224)"/>
<path d="M0 0 C1.32 0.66 2.64 1.32 4 2 C4.12355727 7.07193078 4.21431615 12.14298696 4.2746582 17.21606445 C4.29981005 18.94180559 4.33393619 20.66744012 4.37719727 22.39282227 C4.43782433 24.87282581 4.46620101 27.35142222 4.48828125 29.83203125 C4.51408768 30.60400345 4.5398941 31.37597565 4.56648254 32.17134094 C4.56762695 34.35473633 4.56762695 34.35473633 4 38 C1.46948242 40.01049805 1.46948242 40.01049805 -1 41 C-1.06615922 37.69203911 -1.10581143 34.5732147 -0.50390625 31.3125 C0.11860255 27.2203491 0.14569338 23.25677731 0.125 19.125 C0.13080078 17.97837891 0.13080078 17.97837891 0.13671875 16.80859375 C0.13025346 13.0005378 -0.04049849 9.32812172 -0.5703125 5.5546875 C-1 2 -1 2 0 0 Z " fill="#B3904F" transform="translate(202,228)"/>
<path d="M0 0 C0.66 0.33 1.32 0.66 2 1 C2.0494981 7.03229582 2.08576625 13.06447296 2.10986328 19.09692383 C2.11991069 21.14837707 2.13355092 23.19981604 2.15087891 25.2512207 C2.17518246 28.20267262 2.18649582 31.1539349 2.1953125 34.10546875 C2.20563507 35.02023483 2.21595764 35.93500092 2.22659302 36.87748718 C2.22803574 45.09584065 2.22803574 45.09584065 0 49 C-2.125 50.3125 -2.125 50.3125 -4 51 C-3.125 47.125 -3.125 47.125 -2 46 C-1.88321262 44.62990104 -1.8328182 43.25403745 -1.81054688 41.87915039 C-1.79382935 41.00476822 -1.77711182 40.13038605 -1.7598877 39.22950745 C-1.74631226 38.27849655 -1.73273682 37.32748566 -1.71875 36.34765625 C-1.70034058 35.37718857 -1.68193115 34.40672089 -1.66296387 33.40684509 C-1.6040111 30.29212704 -1.55128711 27.17735317 -1.5 24.0625 C-1.43250022 19.96993163 -1.35880469 15.877545 -1.28125 11.78515625 C-1.26767456 10.83616959 -1.25409912 9.88718292 -1.2401123 8.90943909 C-1.22339478 8.03190475 -1.20667725 7.15437042 -1.18945312 6.25024414 C-1.17066101 5.08894737 -1.17066101 5.08894737 -1.15148926 3.90419006 C-1 2 -1 2 0 0 Z " fill="#D6C278" transform="translate(195,224)"/>
<path d="M0 0 C3.25696479 0.41755959 4.63443291 0.63443291 7 3 C6.01 4.485 6.01 4.485 5 6 C4.63303819 8.51502177 4.63303819 8.51502177 4.5859375 11.32421875 C4.54726562 12.35224609 4.50859375 13.38027344 4.46875 14.43945312 C4.42234375 16.04723633 4.42234375 16.04723633 4.375 17.6875 C4.33632812 18.77095703 4.29765625 19.85441406 4.2578125 20.97070312 C4.16349491 23.64696467 4.07789995 26.32321843 4 29 C1.53271484 27.85791016 1.53271484 27.85791016 -1 26 C-1.58349609 23.38037109 -1.58349609 23.38037109 -1.5234375 20.2734375 C-1.51183594 19.1596875 -1.50023437 18.0459375 -1.48828125 16.8984375 C-1.45089844 15.73570312 -1.41351563 14.57296875 -1.375 13.375 C-1.36082031 12.20453125 -1.34664062 11.0340625 -1.33203125 9.828125 C-1.18156914 1.18156914 -1.18156914 1.18156914 0 0 Z " fill="#BEA15D" transform="translate(173,273)"/>
<path d="M0 0 C2.97 0.495 2.97 0.495 6 1 C6.05383848 3.45862401 6.09359038 5.9160755 6.125 8.375 C6.14175781 9.07367188 6.15851562 9.77234375 6.17578125 10.4921875 C6.19344267 12.32897486 6.10303261 14.16601963 6 16 C5.34 16.66 4.68 17.32 4 18 C1.5 17.8125 1.5 17.8125 -1 17 C-3.13749925 13.79375113 -3.29574999 12.77541897 -3.3125 9.0625 C-3.32925781 8.20785156 -3.34601562 7.35320312 -3.36328125 6.47265625 C-2.93504169 3.5578644 -1.92290461 2.18673321 0 0 Z " fill="#2F2D2B" transform="translate(622,263)"/>
<path d="M0 0 C0.33 0 0.66 0 1 0 C1.01030746 0.56740906 1.02061493 1.13481812 1.03123474 1.71942139 C1.13940321 7.62426028 1.25399285 13.52894976 1.37231445 19.43359375 C1.4156301 21.637338 1.45730759 23.84111508 1.49731445 26.04492188 C1.55509844 29.21234024 1.61876976 32.37959386 1.68359375 35.546875 C1.70030624 36.53242371 1.71701874 37.51797241 1.73423767 38.53338623 C1.75418289 39.4540387 1.77412811 40.37469116 1.79467773 41.32324219 C1.81799416 42.53569611 1.81799416 42.53569611 1.84178162 43.77264404 C1.99702135 45.95806731 2.40008809 47.89708581 3 50 C-0.875 48.25 -0.875 48.25 -2 46 C-2.09886828 44.66309506 -2.13826022 43.32149451 -2.14526367 41.98095703 C-2.15164352 41.15314728 -2.15802338 40.32533752 -2.16459656 39.47244263 C-2.16570938 38.57661469 -2.1668222 37.68078674 -2.16796875 36.7578125 C-2.17129715 35.8378952 -2.17462555 34.91797791 -2.17805481 33.97018433 C-2.1831232 32.02163188 -2.18546316 30.07307075 -2.18530273 28.12451172 C-2.18748604 25.14405985 -2.20563387 22.16397993 -2.22460938 19.18359375 C-2.22754394 17.29166793 -2.22952832 15.39974036 -2.23046875 13.5078125 C-2.23765427 12.61603302 -2.24483978 11.72425354 -2.25224304 10.80545044 C-2.24916641 9.97133636 -2.24608978 9.13722229 -2.24291992 8.27783203 C-2.24434494 7.5466214 -2.24576996 6.81541077 -2.24723816 6.06204224 C-1.96312873 3.69248226 -1.17227436 2.0624371 0 0 Z M-1 44 C0 46 0 46 0 46 Z " fill="#DCC97E" transform="translate(155,241)"/>
<path d="M0 0 C2.5625 -0.25 2.5625 -0.25 5 0 C6.82116003 1.82116003 6.1323508 4.30671764 6.13671875 6.7265625 C6.13285156 7.47679687 6.12898438 8.22703125 6.125 9 C6.12886719 9.75023437 6.13273437 10.50046875 6.13671875 11.2734375 C6.12661053 16.87338947 6.12661053 16.87338947 5 18 C2.5625 18.1875 2.5625 18.1875 0 18 C-2 16 -2 16 -2.265625 13.06640625 C-2.26046875 11.91011719 -2.2553125 10.75382812 -2.25 9.5625 C-2.25515625 8.40878906 -2.2603125 7.25507813 -2.265625 6.06640625 C-2 3 -2 3 0 0 Z " fill="#22211F" transform="translate(347,263)"/>
<path d="M0 0 C3.125 0.375 3.125 0.375 6 1 C6.05383848 3.45862401 6.09359038 5.9160755 6.125 8.375 C6.14175781 9.07367188 6.15851563 9.77234375 6.17578125 10.4921875 C6.19344267 12.32897486 6.10303261 14.16601963 6 16 C5.34 16.66 4.68 17.32 4 18 C-0.55555556 17.44444444 -0.55555556 17.44444444 -2 16 C-2.12557162 13.69006618 -2.17575729 11.37581464 -2.1875 9.0625 C-2.20167969 7.79535156 -2.21585937 6.52820313 -2.23046875 5.22265625 C-2 2 -2 2 0 0 Z " fill="#1C1C1B" transform="translate(312,263)"/>
<path d="M0 0 C0 9.24 0 18.48 0 28 C-1.98 28.99 -1.98 28.99 -4 30 C-4 21.09 -4 12.18 -4 3 C-4.66 2.67 -5.32 2.34 -6 2 C-2.25 0 -2.25 0 0 0 Z " fill="#B2904F" transform="translate(206,271)"/>
<path d="M0 0 C1.61732041 3.23464083 0.99875197 6.74708451 0.87890625 10.2890625 C0.85529526 11.10748627 0.83168427 11.92591003 0.80735779 12.76913452 C0.73067056 15.3879306 0.64666817 18.00643471 0.5625 20.625 C0.50928437 22.39842312 0.45654393 24.17186058 0.40429688 25.9453125 C0.2750486 30.29706054 0.13923848 34.64856061 0 39 C-0.99 38.67 -1.98 38.34 -3 38 C-3.0740421 32.90970056 -3.12855008 27.81971308 -3.16479492 22.72900391 C-3.1799009 20.99652651 -3.20038694 19.26408746 -3.22631836 17.53173828 C-3.26262321 15.04450022 -3.27970765 12.55776674 -3.29296875 10.0703125 C-3.30845261 9.29317902 -3.32393646 8.51604553 -3.33988953 7.71536255 C-3.34057617 5.53173828 -3.34057617 5.53173828 -3 2 C-2.01 1.34 -1.02 0.68 0 0 Z " fill="#AD8849" transform="translate(145,245)"/>
<path d="M0 0 C1.12513633 8.01659634 1.09579384 15.92138585 1 24 C0.34 24 -0.32 24 -1 24 C-1 25.32 -1 26.64 -1 28 C-2.98 28.99 -2.98 28.99 -5 30 C-4.83757812 29.22011719 -4.67515625 28.44023437 -4.5078125 27.63671875 C-3.86118779 23.005891 -3.85471464 18.48151385 -3.875 13.8125 C-3.87113281 12.91080078 -3.86726562 12.00910156 -3.86328125 11.08007812 C-3.86457031 10.21447266 -3.86585938 9.34886719 -3.8671875 8.45703125 C-3.86887939 7.2810437 -3.86887939 7.2810437 -3.87060547 6.08129883 C-3.92279751 3.80368693 -3.92279751 3.80368693 -5 1 C-3 0 -3 0 0 0 Z " fill="#DECC81" transform="translate(195,278)"/>
<path d="M0 0 C0.66 0 1.32 0 2 0 C2 9.24 2 18.48 2 28 C0.68 27.34 -0.64 26.68 -2 26 C-2.05799124 22.22923111 -2.09359306 18.45857666 -2.125 14.6875 C-2.14175781 13.61564453 -2.15851563 12.54378906 -2.17578125 11.43945312 C-2.18222656 10.41142578 -2.18867188 9.38339844 -2.1953125 8.32421875 C-2.20578613 7.37635498 -2.21625977 6.42849121 -2.22705078 5.4519043 C-2 3 -2 3 0 0 Z " fill="#CDB56E" transform="translate(179,276)"/>
<path d="M0 0 C1.65 0.99 3.3 1.98 5 3 C4.67 18.18 4.34 33.36 4 49 C3.01 49.495 3.01 49.495 2 50 C2 34.82 2 19.64 2 4 C1.34 3.67 0.68 3.34 0 3 C0 2.01 0 1.02 0 0 Z " fill="#E0CF84" transform="translate(190,221)"/>
<path d="M0 0 C0.8146875 0.00257813 1.629375 0.00515625 2.46875 0.0078125 C3.2834375 0.00523437 4.098125 0.00265625 4.9375 0 C6.96875 0.1328125 6.96875 0.1328125 7.96875 1.1328125 C8.09375 4.6328125 8.09375 4.6328125 7.96875 8.1328125 C6.96875 9.1328125 6.96875 9.1328125 4.9375 9.265625 C4.1228125 9.26304687 3.308125 9.26046875 2.46875 9.2578125 C1.6540625 9.26039063 0.839375 9.26296875 0 9.265625 C-2.03125 9.1328125 -2.03125 9.1328125 -3.03125 8.1328125 C-3.15625 4.6328125 -3.15625 4.6328125 -3.03125 1.1328125 C-2.03125 0.1328125 -2.03125 0.1328125 0 0 Z " fill="#9F773C" transform="translate(284.03125,241.8671875)"/>
<path d="M0 0 C0.66 0.33 1.32 0.66 2 1 C2 15.85 2 30.7 2 46 C0.515 46.495 0.515 46.495 -1 47 C-0.67 31.49 -0.34 15.98 0 0 Z " fill="#CAB26B" transform="translate(197,225)"/>
<path d="M0 0 C0.8146875 0.00257813 1.629375 0.00515625 2.46875 0.0078125 C3.2834375 0.00523437 4.098125 0.00265625 4.9375 0 C6.96875 0.1328125 6.96875 0.1328125 7.96875 1.1328125 C8.15625 4.0703125 8.15625 4.0703125 7.96875 7.1328125 C5.96875 9.1328125 5.96875 9.1328125 4.05859375 9.36328125 C-1.92013889 9.24392361 -1.92013889 9.24392361 -3.03125 8.1328125 C-3.15625 4.6328125 -3.15625 4.6328125 -3.03125 1.1328125 C-2.03125 0.1328125 -2.03125 0.1328125 0 0 Z " fill="#BFA360" transform="translate(558.03125,241.8671875)"/>
<path d="M0 0 C0 8.91 0 17.82 0 27 C-1.98 27.99 -1.98 27.99 -4 29 C-4 20.42 -4 11.84 -4 3 C-4.99 2.67 -5.98 2.34 -7 2 C-4.35261084 0.5393715 -3.10551666 0 0 0 Z " fill="#C2A561" transform="translate(202,274)"/>
<path d="M0 0 C0.99 0.33 1.98 0.66 3 1 C3.07409401 4.95092059 3.12857406 8.90157294 3.16479492 12.85302734 C3.18732251 14.85919374 3.2254357 16.86516526 3.26367188 18.87109375 C3.27333984 20.12792969 3.28300781 21.38476562 3.29296875 22.6796875 C3.3086792 23.84226074 3.32438965 25.00483398 3.34057617 26.20263672 C3.22818604 27.1257666 3.1157959 28.04889648 3 29 C2.01 29.66 1.02 30.32 0 31 C0 20.77 0 10.54 0 0 Z " fill="#885D2A" transform="translate(210,233)"/>
<path d="M0 0 C0 7.92 0 15.84 0 24 C-1.32 23.34 -2.64 22.68 -4 22 C-4.08685287 18.70849875 -4.14033895 15.4172904 -4.1875 12.125 C-4.21263672 11.18785156 -4.23777344 10.25070313 -4.26367188 9.28515625 C-4.27333984 8.38925781 -4.28300781 7.49335938 -4.29296875 6.5703125 C-4.3086792 5.74289551 -4.32438965 4.91547852 -4.34057617 4.06298828 C-4.22818604 3.38220215 -4.1157959 2.70141602 -4 2 C-1 0 -1 0 0 0 Z " fill="#DDCC81" transform="translate(185,222)"/>
<path d="M0 0 C4 4 4 4 4.45410156 6.19824219 C4.4331543 6.97329102 4.41220703 7.74833984 4.390625 8.546875 C4.37773437 9.39121094 4.36484375 10.23554688 4.3515625 11.10546875 C4.31804687 11.97816406 4.28453125 12.85085937 4.25 13.75 C4.23195312 14.63816406 4.21390625 15.52632812 4.1953125 16.44140625 C4.14827374 18.62870848 4.08257009 20.81379816 4 23 C2.02 23.99 2.02 23.99 0 25 C0 16.75 0 8.5 0 0 Z " fill="#E1D185" transform="translate(163,238)"/>
<path d="M0 0 C1.98 0.99 1.98 0.99 4 2 C3.67 10.91 3.34 19.82 3 29 C2.01 28.67 1.02 28.34 0 28 C0 18.76 0 9.52 0 0 Z " fill="#95672D" transform="translate(164,267)"/>
<path d="M0 0 C0 9.24 0 18.48 0 28 C-0.33 28 -0.66 28 -1 28 C-1.03738281 27.09636719 -1.07476562 26.19273437 -1.11328125 25.26171875 C-1.17902344 24.08222656 -1.24476563 22.90273438 -1.3125 21.6875 C-1.39951172 19.92986328 -1.39951172 19.92986328 -1.48828125 18.13671875 C-2.05099442 14.68741587 -2.58646715 14.26268705 -5 12 C-5.51171875 9.51953125 -5.51171875 9.51953125 -5.6875 6.8125 C-5.75324219 5.91144531 -5.81898438 5.01039063 -5.88671875 4.08203125 C-5.92410156 3.39496094 -5.96148437 2.70789063 -6 2 C-2.25 0 -2.25 0 0 0 Z " fill="#8E632D" transform="translate(213,267)"/>
<path d="M0 0 C3.63 1.98 7.26 3.96 11 6 C11 6.99 11 7.98 11 9 C8.03 10.65 5.06 12.3 2 14 C1.77213542 11.52604167 1.54427083 9.05208333 1.31640625 6.578125 C1.02128823 3.7379189 1.02128823 3.7379189 0 0 Z " fill="#B59655" transform="translate(172,243)"/>
<path d="M0 0 C0 4.37123198 -0.54829181 8.65230869 -1 13 C-4.3 11.35 -7.6 9.7 -11 8 C-7.72291137 4.32966073 -4.28477792 2.30718811 0 0 Z " fill="#B08F4F" transform="translate(175,227)"/>
<path d="M0 0 C0.66 0 1.32 0 2 0 C2.33 9.57 2.66 19.14 3 29 C2.01 28.34 1.02 27.68 0 27 C-0.34057617 24.29443359 -0.34057617 24.29443359 -0.29296875 20.8984375 C-0.28330078 19.68671875 -0.27363281 18.475 -0.26367188 17.2265625 C-0.23853516 15.95554687 -0.21339844 14.68453125 -0.1875 13.375 C-0.17396484 12.09625 -0.16042969 10.8175 -0.14648438 9.5 C-0.11103196 6.33291718 -0.06161441 3.16666459 0 0 Z " fill="#A0763A" transform="translate(167,269)"/>
<path d="M0 0 C0.99 0.33 1.98 0.66 3 1 C2.67 1.33 2.34 1.66 2 2 C1.84213692 3.85174706 1.74892644 5.7090911 1.68359375 7.56640625 C1.64169922 8.69111328 1.59980469 9.81582031 1.55664062 10.97460938 C1.51732422 12.15861328 1.47800781 13.34261719 1.4375 14.5625 C1.39431641 15.75037109 1.35113281 16.93824219 1.30664062 18.16210938 C1.20016454 21.10794784 1.09815159 24.0538743 1 27 C0.34 26.67 -0.32 26.34 -1 26 C-1.02886751 21.85418113 -1.04675327 17.70838784 -1.0625 13.5625 C-1.07087891 12.37849609 -1.07925781 11.19449219 -1.08789062 9.97460938 C-1.09111328 8.84990234 -1.09433594 7.72519531 -1.09765625 6.56640625 C-1.10289307 5.52427979 -1.10812988 4.48215332 -1.11352539 3.40844727 C-1 1 -1 1 0 0 Z " fill="#B59352" transform="translate(173,273)"/>
<path d="M0 0 C2 1 2 1 4 4 C4.1953125 6.69921875 4.1953125 6.69921875 4.125 9.6875 C4.10695312 10.68136719 4.08890625 11.67523438 4.0703125 12.69921875 C4.03550781 13.83810547 4.03550781 13.83810547 4 15 C2.02 15.99 2.02 15.99 0 17 C0 11.39 0 5.78 0 0 Z " fill="#C4A864" transform="translate(170,242)"/>
<path d="M0 0 C3.25696479 0.41755959 4.63443291 0.63443291 7 3 C7 4.32 7 5.64 7 7 C4.03 7 1.06 7 -2 7 C-1.125 1.125 -1.125 1.125 0 0 Z " fill="#3C352B" transform="translate(656,262)"/>
<path d="M0 0 C1.67542976 0.28604898 3.34385343 0.61781233 5 1 C5.33 2.65 5.66 4.3 6 6 C3.36 6 0.72 6 -2 6 C-1.125 1.125 -1.125 1.125 0 0 Z " fill="#282623" transform="translate(382,262)"/>
<path d="M0 0 C0.33 0 0.66 0 1 0 C1 8.58 1 17.16 1 26 C0.01 26.33 -0.98 26.66 -2 27 C-2 26.01 -2 25.02 -2 24 C-1.34 24 -0.68 24 0 24 C-0.165 22.96875 -0.33 21.9375 -0.5 20.875 C-2.49892241 4.99784483 -2.49892241 4.99784483 0 0 Z " fill="#D2BD75" transform="translate(196,278)"/>
<path d="M0 0 C1.52634923 3.05269846 0.83794444 5.75845689 0.5625 9.125 C0.40974609 11.04699219 0.40974609 11.04699219 0.25390625 13.0078125 C0.17011719 13.99523437 0.08632812 14.98265625 0 16 C-0.99 15.34 -1.98 14.68 -3 14 C-3.3984375 11.7578125 -3.3984375 11.7578125 -3.375 9.125 C-3.38273438 8.26132813 -3.39046875 7.39765625 -3.3984375 6.5078125 C-2.93464141 3.58862532 -1.92990171 2.19539084 0 0 Z " fill="#BEA15E" transform="translate(177,226)"/>
<path d="M0 0 C1.98 0.66 3.96 1.32 6 2 C5.02885254 2.59808472 5.02885254 2.59808472 4.03808594 3.20825195 C1.82915174 4.80823484 1.82915174 4.80823484 1.45410156 7.17651367 C1.4331543 7.99869385 1.41220703 8.82087402 1.390625 9.66796875 C1.35839844 10.56064453 1.32617188 11.45332031 1.29296875 12.37304688 C1.27878906 13.30181641 1.26460937 14.23058594 1.25 15.1875 C1.22035156 16.12787109 1.19070312 17.06824219 1.16015625 18.03710938 C1.08946438 20.35815916 1.03676835 22.67820535 1 25 C0.67 25 0.34 25 0 25 C0 16.75 0 8.5 0 0 Z " fill="#A67F43" transform="translate(169,270)"/>
<path d="M0 0 C0 2.64 0 5.28 0 8 C-2.91517292 6.92598892 -4.77810176 6.22189824 -7 4 C-1.125 0 -1.125 0 0 0 Z " fill="#9B733A" transform="translate(171,230)"/>
<path d="M0 0 C2.475 0.99 2.475 0.99 5 2 C5 2.99 5 3.98 5 5 C3.35 5.66 1.7 6.32 0 7 C0 4.69 0 2.38 0 0 Z " fill="#9E763B" transform="translate(178,247)"/>
<path d="M0 0 C0.99 0.33 1.98 0.66 3 1 C3 3.97 3 6.94 3 10 C2.34 10 1.68 10 1 10 C0.67 6.7 0.34 3.4 0 0 Z " fill="#AE8A4B" transform="translate(175,245)"/>
</svg>
